HIERARCHY
ROOT hip
{
  OFFSET 0 0 0
  CHANNELS 6 Xposition Yposition Zposition Zrotation Yrotation Xrotation
  JOINT abdomen
  {
    OFFSET 0 20.6881 -0.73152
    CHANNELS 3 Zrotation Xrotation Yrotation
    JOINT chest
    {
      OFFSET 0 11.7043 -0.48768
      CHANNELS 3 Zrotation Xrotation Yrotation
      JOINT neck
      {
        OFFSET 0 22.1894 -2.19456
        CHANNELS 3 Zrotation Xrotation Yrotation
        JOINT head
        {
          OFFSET -0.24384 7.07133 1.2192
          CHANNELS 3 Zrotation Xrotation Yrotation
          JOINT leftEye
          {
            OFFSET 4.14528 8.04674 8.04672
            CHANNELS 3 Zrotation Xrotation Yrotation
            End Site
            {
              OFFSET 1 0 0
            }
          }
          JOINT rightEye
          {
            OFFSET -3.6576 8.04674 8.04672
            CHANNELS 3 Zrotation Xrotation Yrotation
            End Site
            {
              OFFSET 1 0 0
            }
          }
        }
      }
      JOINT rCollar
      {
        OFFSET -2.68224 19.2634 -4.8768
        CHANNELS 3 Zrotation Xrotation Yrotation
        JOINT rShldr
        {
          OFFSET -8.77824 -1.95073 1.46304
          CHANNELS 3 Zrotation Xrotation Yrotation
          JOINT rForeArm
          {
            OFFSET -28.1742 -1.7115 0.48768
            CHANNELS 3 Zrotation Xrotation Yrotation
            JOINT rHand
            {
              OFFSET -22.5879 0.773209 7.07136
              CHANNELS 3 Zrotation Xrotation Yrotation
              JOINT rThumb1
              {
                OFFSET -1.2192 -0.487915 3.41376
                CHANNELS 3 Zrotation Xrotation Yrotation
                JOINT rThumb2
                {
                  OFFSET -3.37035 -0.52449 3.41376
                  CHANNELS 3 Zrotation Xrotation Yrotation
                  End Site
                  {
                    OFFSET -1.78271 -1.18214 1.43049
                  }
                }
              }
              JOINT rIndex1
              {
                OFFSET -7.75947 0.938293 5.60832
                CHANNELS 3 Zrotation Xrotation Yrotation
                JOINT rIndex2
                {
                  OFFSET -2.54057 -0.884171 1.56538
                  CHANNELS 3 Zrotation Xrotation Yrotation
                  End Site
                  {
                    OFFSET -1.62519 -0.234802 1.16502
                  }
                }
              }
              JOINT rMid1
              {
                OFFSET -8.24714 1.18213 3.41376
                CHANNELS 3 Zrotation Xrotation Yrotation
                JOINT rMid2
                {
                  OFFSET -3.10165 -0.590103 1.0647
                  CHANNELS 3 Zrotation Xrotation Yrotation
                  End Site
                  {
                    OFFSET -2.48547 -0.328903 0.83742
                  }
                }
              }
              JOINT rRing1
              {
                OFFSET -8.82822 0.546677 1.51678
                CHANNELS 3 Zrotation Xrotation Yrotation
                JOINT rRing2
                {
                  OFFSET -2.60934 -0.819778 -0.0198488
                  CHANNELS 3 Zrotation Xrotation Yrotation
                  End Site
                  {
                    OFFSET -2.33842 -0.294052 0.168128
                  }
                }
              }
              JOINT rPinky1
              {
                OFFSET -8.27202 -0.0477905 -0.4584
                CHANNELS 3 Zrotation Xrotation Yrotation
                JOINT rPinky2
                {
                  OFFSET -1.82734 -0.647385 -0.700984
                  CHANNELS 3 Zrotation Xrotation Yrotation
                  End Site
                  {
                    OFFSET -1.69225 -0.51767 -0.607171
                  }
                }
              }
            }
          }
        }
      }
      JOINT lCollar
      {
        OFFSET 2.68224 19.2634 -4.8768
        CHANNELS 3 Zrotation Xrotation Yrotation
        JOINT lShldr
        {
          OFFSET 8.77824 -1.95073 1.46304
          CHANNELS 3 Zrotation Xrotation Yrotation
          JOINT lForeArm
          {
            OFFSET 28.1742 -1.7115 0.48768
            CHANNELS 3 Zrotation Xrotation Yrotation
            JOINT lHand
            {
              OFFSET 22.5879 0.773209 7.07136
              CHANNELS 3 Zrotation Xrotation Yrotation
              JOINT lThumb1
              {
                OFFSET 1.2192 -0.487915 3.41376
                CHANNELS 3 Zrotation Xrotation Yrotation
                JOINT lThumb2
                {
                  OFFSET 3.37035 -0.52449 3.41376
                  CHANNELS 3 Zrotation Xrotation Yrotation
                  End Site
                  {
                    OFFSET 1.78271 -1.18214 1.43049
                  }
                }
              }
              JOINT lIndex1
              {
                OFFSET 7.75947 0.938293 5.60832
                CHANNELS 3 Zrotation Xrotation Yrotation
                JOINT lIndex2
                {
                  OFFSET 2.54057 -0.884171 1.56538
                  CHANNELS 3 Zrotation Xrotation Yrotation
                  End Site
                  {
                    OFFSET 1.62519 -0.234802 1.16502
                  }
                }
              }
              JOINT lMid1
              {
                OFFSET 8.24714 1.18213 3.41376
                CHANNELS 3 Zrotation Xrotation Yrotation
                JOINT lMid2
                {
                  OFFSET 3.10165 -0.590103 1.0647
                  CHANNELS 3 Zrotation Xrotation Yrotation
                  End Site
                  {
                    OFFSET 2.48547 -0.328903 0.83742
                  }
                }
              }
              JOINT lRing1
              {
                OFFSET 8.82822 0.546677 1.51678
                CHANNELS 3 Zrotation Xrotation Yrotation
                JOINT lRing2
                {
                  OFFSET 2.60934 -0.819778 -0.0198488
                  CHANNELS 3 Zrotation Xrotation Yrotation
                  End Site
                  {
                    OFFSET 2.33842 -0.294052 0.168128
                  }
                }
              }
              JOINT lPinky1
              {
                OFFSET 8.27202 -0.0477905 -0.4584
                CHANNELS 3 Zrotation Xrotation Yrotation
                JOINT lPinky2
                {
                  OFFSET 1.82734 -0.647385 -0.700984
                  CHANNELS 3 Zrotation Xrotation Yrotation
                  End Site
                  {
                    OFFSET 1.69225 -0.51767 -0.607171
                  }
                }
              }
            }
          }
        }
      }
    }
  }
  JOINT rButtock
  {
    OFFSET -8.77824 4.35084 1.2192
    CHANNELS 3 Zrotation Xrotation Yrotation
    JOINT rThigh
    {
      OFFSET 0 -1.70687 -2.19456
      CHANNELS 3 Zrotation Xrotation Yrotation
      JOINT rShin
      {
        OFFSET 0 -36.8199 0.73152
        CHANNELS 3 Zrotation Xrotation Yrotation
        JOINT rFoot
        {
          OFFSET 0.73152 -45.1104 -5.12064
          CHANNELS 3 Zrotation Xrotation Yrotation
          End Site
          {
            OFFSET -1.1221 -3.69964 12.103
          }
        }
      }
    }
  }
  JOINT lButtock
  {
    OFFSET 8.77824 4.35084 1.2192
    CHANNELS 3 Zrotation Xrotation Yrotation
    JOINT lThigh
    {
      OFFSET 0 -1.70687 -2.19456
      CHANNELS 3 Zrotation Xrotation Yrotation
      JOINT lShin
      {
        OFFSET 0 -36.8199 0.73152
        CHANNELS 3 Zrotation Xrotation Yrotation
        JOINT lFoot
        {
          OFFSET -0.73152 -45.1104 -5.12064
          CHANNELS 3 Zrotation Xrotation Yrotation
          End Site
          {
            OFFSET 1.1221 -3.69964 12.103
          }
        }
      }
    }
  }
}
MOTION
Frames:	4
Frame Time:	0.03333
-0.16639999812468886 57.51990079879761 1.2756000272929668 3.470399907376438 29.57870110644133 10.442099924821274 -7.766079619334469 12.213500094553973 -5.755530194210706 5.38406992931274 -11.309800326790524 -1.2030799791332125 -8.064540103043809 16.429700737121973 -8.824110072715294 12.97670030976932 -34.04230144603095 -13.852900028387005 -0.0 0.0 0.0 -0.0 0.0 0.0 -3.09810005345703e-13 -1.101190014838627e-13 8.419830343738517e-13 46.71350105460394 10.18140014193835 31.455698562063365 -25.42500010987353 -22.03999933835023 54.499800595202586 -0.4333530112378156 18.383199726542735 2.6770599883445287 2.193260017031673e-09 7.239870381839281e-09 -3.0332500743768804e-09 3.745289995010827e-09 1.2180400103925371e-08 -5.26259984537912e-09 2.193260017031673e-09 7.239870381839281e-09 -3.0332600136102597e-09 7.730910121524428 5.474879855648998 0.41731399283890674 2.193260017031673e-09 7.239849708233852e-09 -3.0332500743768804e-09 2.90554006136521 0.9651829962377875 0.10290200252939893 2.1932699562650525e-09 7.239870381839281e-09 -3.0332500743768804e-09 10.278599710243157 0.7318009818271524 0.025912300303053633 2.193260017031673e-09 7.239879923503326e-09 -3.0332299971254534e-09 2.221669932038622 -0.7334870246959406 -0.20891999872313852 -3.0978200272041e-13 -1.1012199829861461e-13 8.418619970298641e-13 -25.49060066175692 65.85779729809765 -69.55499918639308 28.188899336769012 -31.849199420526137 -70.15589873900328 34.26149929196958 -78.05669957084802 41.63810018048877 3.950739912506639e-10 -3.3871098417111373e-09 -2.517400085068332e-09 8.289080109116504e-10 -5.0845698873615404e-09 -4.26410008680448e-09 3.9507100948065e-10 -3.3871098417111373e-09 -2.517389947050285e-09 -7.730910121524428 5.474879855648998 -0.41731399283890674 3.950729973273259e-10 -3.3871098417111373e-09 -2.517400085068332e-09 -2.90554006136521 0.9651829962377875 -0.10290200252939893 3.950680028625527e-10 -3.3871098417111373e-09 -2.517400085068332e-09 -10.278599710243157 0.7318009818271524 -0.025912300303053633 3.950800044868585e-10 -3.387120178513852e-09 -2.5174100243017114e-09 -2.221669932038622 -0.7334870246959406 0.20891999872313852 -2.0321699793705798e-16 0.0 -3.882510030490358e-19 -51.29890074256781 -53.99839982332653 -63.86769874000938 -2.528949897513741 73.18290197536953 3.2167800424550554 -6.79573001187639 -5.719459965203869 -24.71439918145645 2.0321699793705798e-16 0.0 3.882510030490358e-19 21.858399976245224 -10.080700101683915 25.19559966886219 0.6868669815466368 63.21279971182105 -3.59481991395786 3.5543499759084765 -8.905390177612093 25.423999487160124
-0.3677999950014055 57.87379741668701 2.615599986165762 2.8857000693736157 27.549899281421176 10.186000274344355 -7.399270286374459 12.487699746331428 -6.0284201572148115 5.281139832294294 -11.272200135409605 -1.2856599544064287 -7.756479788456017 16.179999266350062 -8.003460282617324 12.935200080372324 -34.310400031332286 -12.167100058201138 -0.0 0.0 0.0 -0.0 0.0 0.0 -1.5708100563691369e-13 1.1198900327280033e-14 2.5773400354923136e-13 46.41260048581361 12.01740024084103 33.02230148594875 -25.104899879326297 -21.323200013261363 53.31730018948203 -0.44819002306450806 18.682899889586434 2.723940058929969 1.3113400115743954e-09 9.258769608247778e-09 -2.4552299317982654e-10 2.262440063123518e-09 1.5958700280836438e-08 -4.397560136932041e-10 1.311349950807775e-09 9.258769608247778e-09 -2.4553300695745646e-10 7.730910121524428 5.474879855648998 0.41731399283890674 1.3113400115743954e-09 9.258760066583733e-09 -2.455250058745859e-10 2.90554006136521 0.9651829962377875 0.10290200252939893 1.311349950807775e-09 9.258769608247778e-09 -2.4552001140981266e-10 10.278599710243157 0.7318009818271524 0.025912300303053633 1.311329972948682e-09 9.258769608247778e-09 -2.4550999763218274e-10 2.221669932038622 -0.7334870246959406 -0.20891999872313852 -1.5713499683386086e-13 1.1201499791088106e-14 2.575259979131725e-13 -15.95389951425513 62.825200136801165 -80.9824998942822 28.341299640172213 -33.49639857661768 -72.91080089921456 35.2330014938501 -78.27689803950007 42.6305983838779 -2.5426599012600144e-10 -1.564550007849984e-10 -2.0972299271035802e-10 -4.1857600432300194e-10 -2.2934199578213122e-10 -3.78105011430636e-10 -2.5426599012600144e-10 -1.5646500213858662e-10 -2.0971099108605217e-10 -7.730910121524428 5.474879855648998 -0.41731399283890674 -2.5426899674409875e-10 -1.5647700376289244e-10 -2.0972900594655265e-10 -2.90554006136521 0.9651829962377875 -0.10290200252939893 -2.5426999066743673e-10 -1.5645399443761874e-10 -2.0972100486368211e-10 -10.278599710243157 0.7318009818271524 -0.025912300303053633 -2.5426300835598756e-10 -1.5645300051428077e-10 -2.0972900594655265e-10 -2.221669932038622 -0.7334870246959406 0.20891999872313852 -2.0321699793705798e-16 0.0 -3.882510030490358e-19 -47.70410046540381 -54.45540095050291 -61.03709759322685 -2.4111699020226296 72.56259785532731 3.0824199761971496 -6.597820158033393 -5.731200206613475 -24.075199343075393 2.0321699793705798e-16 0.0 3.882510030490358e-19 21.07920004289912 -11.20200030489386 22.141200543735017 0.9738330039347856 67.05400247838784 -3.8104498398288085 1.2875600276561614 -4.470970113704062 23.31700053387979
-0.6241999915800989 58.17660093307495 3.974599950015545 1.939999974299878 25.44169992239421 9.71690032082694 -6.629090044714181 12.915400215742103 -6.169849896150503 5.16061986372895 -11.28099998038152 -1.31914004761395 -7.445329667042439 15.994699649262202 -7.1716397181317975 12.85449968778133 -34.50099987521608 -10.479800007718806 -0.0 0.0 0.0 -0.0 0.0 0.0 -4.353240142620886e-14 -9.767389712615983e-15 -9.046280025485592e-16 45.78099923288419 14.22110015861676 34.87420141146558 -24.812400443215086 -20.69879948726443 52.298000323789765 -0.45988901653482916 18.91180001924107 2.759920001373715 9.697690129983095e-10 1.0230099876025351e-08 9.142949709522284e-10 1.6896100391272158e-09 1.776849950568281e-08 1.5650499761370601e-09 9.697739826149994e-10 1.0230099876025351e-08 9.142850317188488e-10 7.730910121524428 5.474879855648998 0.41731399283890674 9.697680190749715e-10 1.0230099876025351e-08 9.142900013355386e-10 2.90554006136521 0.9651829962377875 0.10290200252939893 9.697710008449854e-10 1.0230099876025351e-08 9.142979527222423e-10 10.278599710243157 0.7318009818271524 0.025912300303053633 9.697579804492582e-10 1.0230099876025351e-08 9.143069974246177e-10 2.221669932038622 -0.7334870246959406 -0.20891999872313852 -4.362280028253559e-14 -9.763290324825306e-15 -1.1872700228085488e-15 -7.493189656330365 58.38499661021343 -91.83819765542536 28.456799846584424 -35.57399868816299 -76.18289864375755 35.22689871982669 -78.2749992469108 42.62439998720612 -4.16507997729881e-10 9.60817043670329e-10 6.536509996146381e-10 -7.491720020090291e-10 1.444159975072312e-09 1.0829900009797125e-09 -4.16507003806543e-10 9.608070050446158e-10 6.536599946208466e-10 -7.730910121524428 5.474879855648998 -0.41731399283890674 -4.165100104246404e-10 9.608020354279259e-10 6.536420046084295e-10 -2.90554006136521 0.9651829962377875 -0.10290200252939893 -4.165110043479783e-10 9.60819031517005e-10 6.536509996146381e-10 -10.278599710243157 0.7318009818271524 -0.025912300303053633 -4.165049911117837e-10 9.608220132870187e-10 6.536420046084295e-10 -2.221669932038622 -0.7334870246959406 0.20891999872313852 -2.0321699793705798e-16 0.0 -3.882510030490358e-19 -43.28539837432327 -54.96529847770646 -57.51959798199447 -2.304420021710854 71.9763012471626 2.969550032945631 -6.4855301405310914 -5.943949927088794 -23.5259991998403 2.0321699793705798e-16 0.0 3.882510030490358e-19 20.782800568771833 -13.236699998262319 19.540399404030268 1.5517200484056377 71.99229755019876 -4.286289909396556 0.0654215995931118 -1.6541199519897614 20.30379940227884
-0.9101999807171524 58.36089849472046 5.340599920600653 0.6416000095440831 23.236600669612276 9.0312995923194 -5.4574001209024665 13.496799578271927 -6.179819837904606 5.022440014177715 -11.33609997018966 -1.3035200453123656 -7.133969944198707 15.874199744377545 -6.327739964099103 12.727699787160983 -34.61370141161587 -8.795169707428304 -0.0 0.0 0.0 -0.0 0.0 0.0 3.083510054770989e-14 -1.7301699879642034e-13 6.606560017318045e-14 44.74359936589139 16.738000108330716 37.06589983309595 -24.560400613787465 -20.183000676617993 51.43310029938022 -0.468168006221678 19.06990011550665 2.784860010241194 1.168550003073429e-09 1.0154000334439314e-08 4.462039919558686e-10 2.026810061039967e-09 1.760989955621429e-08 7.518089800169637e-10 1.168550003073429e-09 1.0154000334439314e-08 4.4619400302632213e-10 7.730910121524428 5.474879855648998 0.41731399283890674 1.1685399644477154e-09 1.0154000334439314e-08 4.4619797871967394e-10 2.90554006136521 0.9651829962377875 0.10290200252939893 1.168550003073429e-09 1.0154000334439314e-08 4.4620498587920655e-10 10.278599710243157 0.7318009818271524 0.025912300303053633 1.1685399644477154e-09 1.0154000334439314e-08 4.4621601842825787e-10 2.221669932038622 -0.7334870246959406 -0.20891999872313852 3.075370123527879e-14 -1.7301699879642034e-13 6.572399969002384e-14 -1.0515499912406583 52.318900702650005 -100.88300053173387 28.35319953725367 -37.97529853994813 -80.26800063539633 34.24419842280194 -78.05100319308023 41.62020166976875 -9.165129854251306e-11 -3.529409970246908e-11 7.27170030462378e-11 -1.6287999457047265e-10 -6.405799883414113e-11 1.1919700174703855e-10 -9.165359699023209e-11 -3.529779896089254e-11 7.272840210452e-11 -7.730910121524428 5.474879855648998 -0.41731399283890674 -9.165009962248664e-11 -3.527679922436776e-11 7.271400264016134e-11 -2.90554006136521 0.9651829962377875 -0.10290200252939893 -9.165600104230577e-11 -3.5293301457788286e-11 7.271520156018775e-11 -10.278599710243157 0.7318009818271524 -0.025912300303053633 -9.164719860874398e-11 -3.528980098403241e-11 7.27018022311879e-11 -2.221669932038622 -0.7334870246959406 0.20891999872313852 -2.0321699793705798e-16 0.0 -3.882510030490358e-19 -38.00539918362037 -55.451201550355755 -53.25569871335769 -2.2060300794997625 71.42380041501109 2.87553994953981 -6.453929843449204 -6.360139820200705 -23.06730077065517 2.0321699793705798e-16 0.0 3.882510030490358e-19 20.88599960448885 -16.21919942954406 17.403400552367945 2.879050026442962 78.02480258742406 -5.489160073656202 -0.23385700604264184 -0.5118270022832226 16.256099526535053
